<svg width="122" height="148" viewBox="0 0 122 148" fill="none" xmlns="http://www.w3.org/2000/svg">
<rect y="16.7314" width="121.639" height="121.639" rx="10" fill="#F4F440"/>
<path d="M62.8651 52.432C66.8331 52.432 70.4171 53.296 73.6171 55.024C76.8171 56.688 79.3131 59.216 81.1051 62.608C82.9611 66 83.8891 70.128 83.8891 74.992V106H75.2491V76.24C75.2491 70.992 73.9371 66.992 71.3131 64.24C68.6891 61.424 65.1051 60.016 60.5611 60.016C55.9531 60.016 52.2731 61.456 49.5211 64.336C46.8331 67.216 45.4891 71.408 45.4891 76.912V106H36.7531V34.96H45.4891V60.88C47.2171 58.192 49.5851 56.112 52.5931 54.64C55.6651 53.168 59.0891 52.432 62.8651 52.432Z" fill="white"/>
</svg>
