<svg width="32" height="32" viewBox="0 0 32 32" fill="none" xmlns="http://www.w3.org/2000/svg">
<g clip-path="url(#clip0_13_34)">
<path fill-rule="evenodd" clip-rule="evenodd" d="M12.6062 2.74829e-06C9.26283 2.74829e-06 6.05641 1.32815 3.6923 3.69225C1.3282 6.05637 6.27315e-05 9.26277 6.27315e-05 12.6061C-0.00781006 15.0875 0.725509 17.5147 2.10602 19.5766L0.421641 24.0841C0.235582 24.5819 0.662258 25.093 1.18539 24.9991L7.08914 23.9369C7.67547 24.2226 8.28139 24.4619 8.90123 24.653C8.68544 23.7081 8.57145 22.7245 8.57145 21.7143C8.57145 14.4557 14.4557 8.57143 21.7143 8.57143C22.7287 8.57143 23.7163 8.68636 24.6647 8.90391C24.2023 7.39836 23.4608 5.99004 22.4762 4.75356C21.2946 3.26972 19.7934 2.07164 18.0845 1.24859C16.3756 0.425545 14.503 -0.00124964 12.6062 2.74829e-06ZM28.9879 14.4412C27.0587 12.5123 24.4425 11.4286 21.7147 11.4286C20.167 11.4275 18.6391 11.7758 17.2447 12.4473C15.8504 13.1189 14.6255 14.0964 13.6615 15.3071C12.6974 16.5179 12.019 17.9305 11.6768 19.4398C11.3346 20.9492 11.3373 22.5163 11.6849 24.0245C12.0325 25.5326 12.716 26.9429 13.6843 28.1499C14.6527 29.3573 15.881 30.3305 17.2777 30.997C18.6745 31.6635 20.2037 32.0064 21.7513 32C23.299 31.9934 24.8251 31.6377 26.2162 30.9593L30.8151 31.7867C31.3383 31.8809 31.7648 31.3698 31.5787 30.8718L30.2821 27.4016C31.4085 25.7193 32.0069 23.739 32.0005 21.7143C32.0005 18.9864 30.9168 16.3701 28.9879 14.4412Z" fill="#484848"/>
</g>
<defs>
<clipPath id="clip0_13_34">
<rect width="32" height="32" fill="white"/>
</clipPath>
</defs>
</svg>
