<svg width="24" height="24" viewBox="0 0 24 24" fill="none" xmlns="http://www.w3.org/2000/svg">
<path d="M8.995 10.608C8.851 10.344 8.653 10.143 8.401 10.005C8.149 9.867 7.855 9.798 7.519 9.798C7.147 9.798 6.817 9.882 6.529 10.05C6.241 10.218 6.016 10.458 5.854 10.77C5.692 11.082 5.611 11.442 5.611 11.85C5.611 12.27 5.692 12.636 5.854 12.948C6.022 13.26 6.253 13.5 6.547 13.668C6.841 13.836 7.183 13.92 7.573 13.92C8.053 13.92 8.446 13.794 8.752 13.542C9.058 13.284 9.259 12.927 9.355 12.471H7.195V11.508H10.597V12.606C10.513 13.044 10.333 13.449 10.057 13.821C9.781 14.193 9.424 14.493 8.986 14.721C8.554 14.943 8.068 15.054 7.528 15.054C6.922 15.054 6.373 14.919 5.881 14.649C5.395 14.373 5.011 13.992 4.729 13.506C4.453 13.02 4.315 12.468 4.315 11.85C4.315 11.232 4.453 10.68 4.729 10.194C5.011 9.702 5.395 9.321 5.881 9.051C6.373 8.775 6.919 8.637 7.519 8.637C8.227 8.637 8.842 8.811 9.364 9.159C9.886 9.501 10.246 9.984 10.444 10.608H8.995ZM13.2392 8.718V15H11.9792V8.718H13.2392ZM18.8131 8.718V9.735H16.1941V11.346H18.2011V12.345H16.1941V15H14.9341V8.718H18.8131Z" fill="#484848"/>
<rect x="0.75" y="0.75" width="22.5" height="22.5" rx="4.25" stroke="#484848" stroke-width="1.5" stroke-linejoin="round"/>
</svg>
