<svg width="32" height="32" viewBox="0 0 32 32" fill="none" xmlns="http://www.w3.org/2000/svg">
<path fill-rule="evenodd" clip-rule="evenodd" d="M30.2856 5.71429C30.2856 8.8702 27.7272 11.4286 24.5713 11.4286C21.4154 11.4286 18.857 8.8702 18.857 5.71429C18.857 2.55838 21.4154 0 24.5713 0C27.7272 0 30.2856 2.55838 30.2856 5.71429ZM17.0534 1.59388C16.0738 1.29743 15.0476 1.14286 14.0054 1.14286C11.2143 1.14286 8.53744 2.25164 6.56382 4.22528C4.59017 6.1989 3.48139 8.87575 3.48139 11.6669V19.3754C3.48139 19.7969 3.31394 20.2012 3.01588 20.4993C2.7178 20.7973 2.31355 20.9648 1.89202 20.9648C0.945246 20.9648 0.177734 21.7323 0.177734 22.6791C0.177734 23.6258 0.945246 24.3934 1.89202 24.3934H26.1187C27.0657 24.3934 27.833 23.6258 27.833 22.6791C27.833 21.7323 27.0657 20.9648 26.1187 20.9648C25.6972 20.9648 25.2931 20.7973 24.9951 20.4993C24.697 20.2012 24.5295 19.7969 24.5295 19.3754V14.2856C19.8148 14.2631 15.9999 10.4342 15.9999 5.71429C15.9999 4.22082 16.3818 2.81657 17.0534 1.59388ZM10.0054 29.1429C10.0054 28.1961 10.773 27.4286 11.7197 27.4286H16.2912C17.2379 27.4286 18.0054 28.1961 18.0054 29.1429C18.0054 30.0896 17.2379 30.8571 16.2912 30.8571H11.7197C10.773 30.8571 10.0054 30.0896 10.0054 29.1429Z" fill="#484848"/>
</svg>
