<svg width="20" height="20" viewBox="0 0 20 20" fill="none" xmlns="http://www.w3.org/2000/svg">
<g clip-path="url(#clip0_17_12)">
<path fill-rule="evenodd" clip-rule="evenodd" d="M16.8876 0.13934C17.2995 -0.0110187 17.7455 -0.0412981 18.174 0.0521741C18.6067 0.146582 19.0033 0.363265 19.3165 0.676462C19.6296 0.98966 19.8463 1.3862 19.9407 1.81895C20.0342 2.24741 20.0039 2.69352 19.8536 3.10528L14.7479 18.4081C14.6235 18.7844 14.4042 19.1236 14.1115 19.391C13.8196 19.6577 13.4643 19.845 13.0795 19.9353C12.6946 20.0292 12.2919 20.0211 11.9109 19.9123C11.5303 19.8036 11.1845 19.5979 10.9074 19.3153L8.16839 16.5887L5.29116 18.0766C5.0668 18.1926 4.79784 18.1814 4.5838 18.0473C4.36977 17.9133 4.24247 17.676 4.24903 17.4236L4.36699 12.8753L14.4312 5.56476C14.8302 5.27496 14.9187 4.71661 14.6289 4.31765C14.339 3.91868 13.7807 3.83019 13.3818 4.11999L3.14679 11.5546L0.67578 9.08356C0.408175 8.81615 0.210909 8.48621 0.1022 8.12384C-0.00573645 7.76405 -0.0232727 7.38325 0.0510836 7.01514C0.125536 6.61298 0.30531 6.23769 0.57214 5.92759C0.840797 5.61536 1.18796 5.38055 1.57774 5.24742L1.58256 5.24578L16.8876 0.13934Z" fill="#484848"/>
</g>
<defs>
<clipPath id="clip0_17_12">
<rect width="20" height="20" fill="white"/>
</clipPath>
</defs>
</svg>
