<svg width="32" height="32" viewBox="0 0 32 32" fill="none" xmlns="http://www.w3.org/2000/svg">
<g clip-path="url(#clip0_13_46)">
<path fill-rule="evenodd" clip-rule="evenodd" d="M18.2857 10.2859C18.2857 14.0729 15.2157 17.143 11.4286 17.143C7.64149 17.143 4.57143 14.0729 4.57143 10.2859C4.57143 6.49877 7.64149 3.42871 11.4286 3.42871C15.2157 3.42871 18.2857 6.49877 18.2857 10.2859ZM11.4286 19.4286C5.11675 19.4286 0 24.5454 0 30.8572C0 31.4883 0.511675 32.0001 1.14286 32.0001H21.7143C22.3455 32.0001 22.8571 31.4883 22.8571 30.8572C22.8571 24.5454 17.7404 19.4286 11.4286 19.4286ZM30.8574 32.0001H25.5488C25.6567 31.638 25.7145 31.2542 25.7145 30.8572C25.7145 26.1918 23.4782 22.0489 20.019 19.4418C20.2021 19.4331 20.3864 19.4286 20.5716 19.4286C26.8834 19.4286 32.0002 24.5454 32.0002 30.8572C32.0002 31.4883 31.4885 32.0001 30.8574 32.0001ZM20.5716 17.143C19.8819 17.143 19.2161 17.0412 18.5882 16.8518C20.1747 15.1228 21.143 12.8174 21.143 10.2859C21.143 7.75431 20.1747 5.44894 18.5882 3.71993C19.2161 3.53052 19.8819 3.42871 20.5716 3.42871C24.3586 3.42871 27.4288 6.49877 27.4288 10.2859C27.4288 14.0729 24.3586 17.143 20.5716 17.143Z" fill="#484848"/>
</g>
<defs>
<clipPath id="clip0_13_46">
<rect width="32" height="32" fill="white"/>
</clipPath>
</defs>
</svg>
