<svg width="24" height="24" viewBox="0 0 24 24" fill="none" xmlns="http://www.w3.org/2000/svg">
<path d="M12.53 20.4201H6.21C3.05 20.4201 2 18.3201 2 16.2101V7.79008C2 4.63008 3.05 3.58008 6.21 3.58008H12.53C15.69 3.58008 16.74 4.63008 16.74 7.79008V16.2101C16.74 19.3701 15.68 20.4201 12.53 20.4201Z" stroke="#484848" stroke-width="1.5" stroke-linecap="round" stroke-linejoin="round"/>
<path d="M19.52 17.1001L16.74 15.1501V8.84008L19.52 6.89008C20.88 5.94008 22 6.52008 22 8.19008V15.8101C22 17.4801 20.88 18.0601 19.52 17.1001Z" stroke="#484848" stroke-width="1.5" stroke-linecap="round" stroke-linejoin="round"/>
<path d="M11.5 11.0001C12.3284 11.0001 13 10.3285 13 9.50008C13 8.67165 12.3284 8.00008 11.5 8.00008C10.6716 8.00008 10 8.67165 10 9.50008C10 10.3285 10.6716 11.0001 11.5 11.0001Z" stroke="#484848" stroke-width="1.5" stroke-linecap="round" stroke-linejoin="round"/>
</svg>
