<svg width="319" height="154" viewBox="0 0 319 154" fill="none" xmlns="http://www.w3.org/2000/svg">
<path d="M181.392 80.68C181.392 82.344 181.296 84.104 181.104 85.96H139.056C139.376 91.144 141.136 95.208 144.336 98.152C147.6 101.032 151.536 102.472 156.144 102.472C159.92 102.472 163.056 101.608 165.552 99.88C168.112 98.088 169.904 95.72 170.928 92.776H180.336C178.928 97.832 176.112 101.96 171.888 105.16C167.664 108.296 162.416 109.864 156.144 109.864C151.152 109.864 146.672 108.744 142.704 106.504C138.8 104.264 135.728 101.096 133.488 97C131.248 92.84 130.128 88.04 130.128 82.6C130.128 77.16 131.216 72.392 133.392 68.296C135.568 64.2 138.608 61.064 142.512 58.888C146.48 56.648 151.024 55.528 156.144 55.528C161.136 55.528 165.552 56.616 169.392 58.792C173.232 60.968 176.176 63.976 178.224 67.816C180.336 71.592 181.392 75.88 181.392 80.68ZM172.368 78.856C172.368 75.528 171.632 72.68 170.16 70.312C168.688 67.88 166.672 66.056 164.112 64.84C161.616 63.56 158.832 62.92 155.76 62.92C151.344 62.92 147.568 64.328 144.432 67.144C141.36 69.96 139.6 73.864 139.152 78.856H172.368ZM206.459 37.96V109H197.723V37.96H206.459ZM234.884 37.96V109H226.148V37.96H234.884ZM277.517 109.864C272.589 109.864 268.109 108.744 264.077 106.504C260.109 104.264 256.973 101.096 254.669 97C252.429 92.84 251.309 88.04 251.309 82.6C251.309 77.224 252.461 72.488 254.765 68.392C257.133 64.232 260.333 61.064 264.365 58.888C268.397 56.648 272.909 55.528 277.901 55.528C282.893 55.528 287.405 56.648 291.437 58.888C295.469 61.064 298.637 64.2 300.941 68.296C303.309 72.392 304.493 77.16 304.493 82.6C304.493 88.04 303.277 92.84 300.845 97C298.477 101.096 295.245 104.264 291.149 106.504C287.053 108.744 282.509 109.864 277.517 109.864ZM277.517 102.184C280.653 102.184 283.597 101.448 286.349 99.976C289.101 98.504 291.309 96.296 292.973 93.352C294.701 90.408 295.565 86.824 295.565 82.6C295.565 78.376 294.733 74.792 293.069 71.848C291.405 68.904 289.229 66.728 286.541 65.32C283.853 63.848 280.941 63.112 277.805 63.112C274.605 63.112 271.661 63.848 268.973 65.32C266.349 66.728 264.237 68.904 262.637 71.848C261.037 74.792 260.237 78.376 260.237 82.6C260.237 86.888 261.005 90.504 262.541 93.448C264.141 96.392 266.253 98.6 268.877 100.072C271.501 101.48 274.381 102.184 277.517 102.184Z" fill="#F4F440"/>
<rect y="16.7314" width="121.639" height="121.639" rx="10" fill="#F4F440"/>
<path d="M62.8651 52.432C66.8331 52.432 70.4171 53.296 73.6171 55.024C76.8171 56.688 79.3131 59.216 81.1051 62.608C82.9611 66 83.8891 70.128 83.8891 74.992V106H75.2491V76.24C75.2491 70.992 73.9371 66.992 71.3131 64.24C68.6891 61.424 65.1051 60.016 60.5611 60.016C55.9531 60.016 52.2731 61.456 49.5211 64.336C46.8331 67.216 45.4891 71.408 45.4891 76.912V106H36.7531V34.96H45.4891V60.88C47.2171 58.192 49.5851 56.112 52.5931 54.64C55.6651 53.168 59.0891 52.432 62.8651 52.432Z" fill="white"/>
</svg>
